<svg width="88" height="88" viewBox="0 0 88 88" fill="none" xmlns="http://www.w3.org/2000/svg">
<path d="M21.1869 11.0927L23.9177 9.46729L65.474 9.9619L66.8634 11.8971L66.5657 14.2293L62.7449 20.7296L59.6684 27.7757L61.157 29.5124L60.512 30.9514L59.1722 38.6426L61.157 45.1925V47.1773L59.6684 47.9712L61.7029 54.3723L67.5085 68.1171L66.0199 73.4762L63.1915 76.6022L58.676 78.4878L27.8617 77.9916L23.0981 75.1633L21.1133 71.0448V67.1744L26.0257 55.5135L28.5032 47.9461H27.1619L26.1934 46.7889L28.7292 37.7511L26.7136 30.3388V28.5832L28.7292 28.1281L26.1934 22.7314L21.1869 13.8886V11.0927Z" fill="white"/>
<path d="M38.891 37.8148V38.0227C38.891 39.8935 38.1473 43.0901 37.0433 46.8086C36.8262 47.5523 36.0547 48.0697 35.1771 48.0697H28.516C28.3821 48.0697 28.2481 48.0605 28.1188 48.0374C27.0794 47.848 26.3819 46.9287 26.6498 45.991C27.6199 42.6235 28.2527 39.755 28.2527 38.0273C28.2527 35.8008 27.6384 33.0477 26.6868 30.1006C26.3865 29.1721 27.0471 28.2529 28.0587 28.0312C28.2112 27.9988 28.3682 27.9803 28.5345 27.9803H35.1725C36.027 27.9803 36.7754 28.47 37.0202 29.186C38.1057 32.3918 38.8494 35.3989 38.891 37.8195V37.8148Z" stroke="#222222" stroke-width="1.5" stroke-linecap="round" stroke-linejoin="round"/>
<path d="M59.3268 48.0467C59.2437 48.0559 59.1467 48.0652 59.0589 48.0652H52.6519C51.7742 48.0652 51.0028 47.5478 50.7857 46.8041C49.6817 43.0856 48.938 39.889 48.938 38.0182C48.938 37.8935 48.938 37.7687 48.9426 37.6394C49.0119 35.2512 49.751 32.3041 50.8088 29.1768C51.0536 28.4608 51.802 27.9712 52.6565 27.9712H59.0312C59.1513 27.9712 59.2668 27.9804 59.3822 27.9989C60.4678 28.1698 61.1884 29.126 60.8835 30.0915C59.9366 33.0386 59.313 35.7917 59.313 38.0182C59.313 39.7504 59.9458 42.619 60.9159 45.9819C61.1976 46.9565 60.4354 47.9127 59.3268 48.0467V48.0467Z" stroke="#222222" stroke-width="1.5" stroke-linecap="round" stroke-linejoin="round"/>
<path d="M59.6268 48.1896C61.6547 55.7191 64.6157 60.1813 66.5974 65.937C68.6576 71.9374 64.1907 78.1781 57.8253 78.1781H30.2157C23.8503 78.1781 19.3835 71.9328 21.4437 65.937C23.4253 60.1721 26.3956 55.7006 28.4188 48.1665" stroke="#222222" stroke-width="1.5" stroke-linecap="round" stroke-linejoin="round"/>
<path d="M63.2902 62.7173H24.7513C24.257 63.7705 23.7905 64.8329 23.3747 65.96C21.4901 71.0274 25.5735 76.3027 31.3985 76.3027H56.6476C62.4725 76.3027 66.5514 71.0274 64.6713 65.96C64.251 64.8375 63.7844 63.7705 63.2902 62.7173Z" stroke="#222222" stroke-width="1.5" stroke-linecap="round" stroke-linejoin="round"/>
<path d="M28.3632 27.8879C26.1922 20.9589 22.9864 18.4506 21.1017 13.3648C20.4688 11.6464 21.7438 9.81714 23.5823 9.81714H64.4585C66.297 9.81714 67.5765 11.6464 66.9391 13.3648C65.059 18.446 61.8624 20.9404 59.6867 27.8601" stroke="#222222" stroke-width="1.5" stroke-linecap="round" stroke-linejoin="round"/>
<path d="M44.0227 41.6072C45.7269 41.6072 47.1084 40.2257 47.1084 38.5215C47.1084 36.8173 45.7269 35.4358 44.0227 35.4358C42.3185 35.4358 40.937 36.8173 40.937 38.5215C40.937 40.2257 42.3185 41.6072 44.0227 41.6072Z" stroke="#222222" stroke-width="1.5" stroke-linecap="round" stroke-linejoin="round"/>
<path d="M47.104 38.5215H59.2574" stroke="#222222" stroke-width="1.5" stroke-linecap="round" stroke-linejoin="round"/>
<path d="M40.9373 38.5215H28.3174" stroke="#222222" stroke-width="1.5" stroke-linecap="round" stroke-linejoin="round"/>
</svg>
