<svg width="88" height="88" viewBox="0 0 88 88" fill="none" xmlns="http://www.w3.org/2000/svg">
<path d="M72.9814 57.1519C62.5757 49.3567 52.9379 47.1347 42.5412 52.5272C34.0596 45.5901 21.7299 50.9826 12.4624 57.1519C28.2967 80.0317 57.1019 82.1093 72.9904 57.1519H72.9814Z" stroke="#222222" stroke-width="1.5" stroke-linecap="round" stroke-linejoin="round"/>
<path d="M72.9814 57.1519C62.5757 49.3567 52.9379 47.1347 42.5412 52.5272C34.0596 45.5901 21.7299 50.9826 12.4624 57.1519C28.2967 80.0317 57.1019 82.1093 72.9904 57.1519H72.9814Z" fill="white" stroke="#222222" stroke-width="1.5" stroke-linecap="round" stroke-linejoin="round"/>
<path d="M12.4531 57.1519C12.4531 57.1519 40.6712 72.4894 72.9812 57.1519" stroke="#222222" stroke-width="1.5" stroke-linecap="round" stroke-linejoin="round"/>
<path d="M42.7217 32.2577V12.9006" stroke="#222222" stroke-width="1.5" stroke-linecap="round" stroke-linejoin="round"/>
<path d="M22.5155 33.7931L12.4531 17.5614" stroke="#222222" stroke-width="1.5" stroke-linecap="round" stroke-linejoin="round"/>
<path d="M63.1445 32.2576L75.5464 17.5614" stroke="#222222" stroke-width="1.5" stroke-linecap="round" stroke-linejoin="round"/>
</svg>
